<svg xmlns="http://www.w3.org/2000/svg" width="2186" height="512" viewBox="0 0 2186 512">
  <defs><linearGradient id="dropGrad" gradientUnits="userSpaceOnUse" x1="256" y1="472" x2="256" y2="132"><stop offset="0%" stop-color="#20D5DF"/><stop offset="52%" stop-color="#3C79EE"/><stop offset="100%" stop-color="#5C3FD6"/></linearGradient></defs>
  <g id="icon">
    <g stroke="#F4C3B0" stroke-width="26" stroke-linecap="round" fill="none">
      <line x1="139" y1="121" x2="113" y2="89"/>
      <line x1="256" y1="78"  x2="256" y2="40"/>
      <line x1="373" y1="121" x2="399" y2="89"/>
    </g>
    <path fill="url(#dropGrad)" d="M 276 132 C 280 168, 296 194, 314 220 C 344 262, 372 306, 372 360 C 372 425, 320 472, 256 472 C 192 472, 140 425, 140 360 C 140 296, 180 248, 214 208 C 240 178, 262 156, 276 132 Z"/>
    <path fill="#F7D2C4" d="M 256 306 C 256 306, 202 360, 202 398 C 202 428, 226 450, 256 450 C 286 450, 310 428, 310 398 C 310 360, 256 306, 256 306 Z"/>
  </g>
  <!-- wordmark: Quicksand Bold, outlined to paths (no font dependency) -->
  <path transform="translate(444.11 359.40)" fill="#363086" d="M176.93617021276594 -204.89361702127658Q186.89361702127658 -204.89361702127658 193.40425531914894 -198.1914893617021Q199.91489361702128 -191.48936170212767 199.91489361702128 -181.53191489361703V-18.76595744680851Q199.91489361702128 16.46808510638298 186.70212765957447 37.34042553191489Q173.48936170212767 58.212765957446805 151.27659574468086 67.40425531914894Q129.06382978723406 76.59574468085107 101.48936170212765 76.59574468085107Q89.23404255319149 76.59574468085107 75.44680851063829 74.68085106382979Q61.659574468085104 72.76595744680851 52.851063829787236 68.93617021276596Q41.361702127659576 63.95744680851064 36.95744680851064 56.48936170212766Q32.5531914893617 49.02127659574468 35.234042553191486 40.59574468085106Q38.680851063829785 29.48936170212766 46.34042553191489 25.46808510638298Q54.0 21.4468085106383 62.42553191489362 24.51063829787234Q68.55319148936171 26.425531914893618 78.51063829787233 30.4468085106383Q88.46808510638297 34.46808510638298 101.48936170212765 34.46808510638298Q119.1063829787234 34.46808510638298 130.7872340425532 29.680851063829788Q142.46808510638297 24.893617021276597 148.40425531914894 13.595744680851064Q154.3404255319149 2.297872340425532 154.3404255319149 -17.23404255319149V-42.8936170212766L162.38297872340425 -33.702127659574465Q155.87234042553192 -21.06382978723404 146.1063829787234 -12.829787234042552Q136.3404255319149 -4.595744680851064 122.93617021276594 -0.38297872340425565Q109.53191489361701 3.829787234042553 92.29787234042553 3.829787234042553Q72.0 3.829787234042553 56.87234042553192 -5.553191489361701Q41.744680851063826 -14.936170212765957 33.31914893617021 -31.595744680851062Q24.893617021276597 -48.25531914893617 24.893617021276597 -69.70212765957447V-181.53191489361703Q24.893617021276597 -191.48936170212767 31.404255319148938 -198.1914893617021Q37.91489361702128 -204.89361702127658 47.87234042553192 -204.89361702127658Q57.829787234042556 -204.89361702127658 64.34042553191489 -198.1914893617021Q70.85106382978724 -191.48936170212767 70.85106382978724 -181.53191489361703V-83.48936170212765Q70.85106382978724 -58.59574468085106 81.76595744680851 -48.4468085106383Q92.68085106382979 -38.297872340425535 112.2127659574468 -38.297872340425535Q125.61702127659575 -38.297872340425535 134.8085106382979 -43.46808510638298Q144.0 -48.638297872340424 148.97872340425533 -58.787234042553195Q153.95744680851064 -68.93617021276596 153.95744680851064 -83.48936170212765V-181.53191489361703Q153.95744680851064 -191.48936170212767 160.46808510638297 -198.1914893617021Q166.9787234042553 -204.89361702127658 176.93617021276594 -204.89361702127658ZM394.08510638297867 -204.89361702127658Q404.04255319148933 -204.89361702127658 410.55319148936167 -198.1914893617021Q417.063829787234 -191.48936170212767 417.063829787234 -181.53191489361703V-84.25531914893617Q417.063829787234 -43.659574468085104 394.46808510638294 -19.914893617021274Q371.8723404255319 3.829787234042553 329.36170212765956 3.829787234042553Q286.8510638297872 3.829787234042553 264.4468085106383 -19.914893617021274Q242.04255319148933 -43.659574468085104 242.04255319148933 -84.25531914893617V-181.53191489361703Q242.04255319148933 -191.48936170212767 248.55319148936167 -198.1914893617021Q255.06382978723403 -204.89361702127658 265.02127659574467 -204.89361702127658Q274.97872340425533 -204.89361702127658 281.48936170212767 -198.1914893617021Q288.0 -191.48936170212767 288.0 -181.53191489361703V-84.25531914893617Q288.0 -60.8936170212766 298.3404255319149 -49.59574468085107Q308.6808510638298 -38.297872340425535 329.36170212765956 -38.297872340425535Q350.4255319148936 -38.297872340425535 360.7659574468085 -49.59574468085107Q371.1063829787234 -60.8936170212766 371.1063829787234 -84.25531914893617V-181.53191489361703Q371.1063829787234 -191.48936170212767 377.6170212765957 -198.1914893617021Q384.12765957446805 -204.89361702127658 394.08510638297867 -204.89361702127658ZM568.7234042553191 -208.72340425531914Q597.063829787234 -208.72340425531914 611.8085106382978 -196.85106382978722Q626.5531914893617 -184.9787234042553 632.1063829787233 -165.25531914893617Q637.6595744680851 -145.53191489361703 637.6595744680851 -121.40425531914893V-23.361702127659573Q637.6595744680851 -13.404255319148936 631.1489361702128 -6.702127659574468Q624.6382978723404 0.0 614.6808510638298 0.0Q604.7234042553191 0.0 598.2127659574468 -6.702127659574468Q591.7021276595744 -13.404255319148936 591.7021276595744 -23.361702127659573V-121.40425531914893Q591.7021276595744 -134.04255319148936 588.4468085106382 -144.1914893617021Q585.1914893617021 -154.3404255319149 576.7659574468084 -160.46808510638297Q568.3404255319149 -166.59574468085106 552.6382978723404 -166.59574468085106Q537.3191489361702 -166.59574468085106 526.7872340425531 -160.46808510638297Q516.2553191489361 -154.3404255319149 510.70212765957444 -144.1914893617021Q505.1489361702127 -134.04255319148936 505.1489361702127 -121.40425531914893V-23.361702127659573Q505.1489361702127 -13.404255319148936 498.6382978723404 -6.702127659574468Q492.12765957446805 0.0 482.17021276595744 0.0Q472.2127659574468 0.0 465.70212765957444 -6.702127659574468Q459.1914893617021 -13.404255319148936 459.1914893617021 -23.361702127659573V-181.53191489361703Q459.1914893617021 -191.48936170212767 465.70212765957444 -198.1914893617021Q472.2127659574468 -204.89361702127658 482.17021276595744 -204.89361702127658Q492.12765957446805 -204.89361702127658 498.6382978723404 -198.1914893617021Q505.1489361702127 -191.48936170212767 505.1489361702127 -181.53191489361703V-165.06382978723403L499.4042553191489 -166.2127659574468Q502.8510638297872 -172.72340425531914 509.36170212765956 -180.1914893617021Q515.8723404255319 -187.6595744680851 524.6808510638298 -194.17021276595744Q533.4893617021277 -200.68085106382978 544.5957446808511 -204.70212765957444Q555.7021276595744 -208.72340425531914 568.7234042553191 -208.72340425531914ZM878.5531914893617 -102.25531914893617Q878.5531914893617 -70.85106382978724 864.5744680851063 -46.91489361702128Q850.595744680851 -22.97872340425532 827.0425531914893 -9.574468085106384Q803.4893617021276 3.829787234042553 774.3829787234042 3.829787234042553Q745.2765957446808 3.829787234042553 721.7234042553191 -9.574468085106384Q698.1702127659574 -22.97872340425532 684.1914893617021 -46.91489361702128Q670.2127659574468 -70.85106382978724 670.2127659574468 -102.25531914893617Q670.2127659574468 -133.6595744680851 684.1914893617021 -157.59574468085106Q698.1702127659574 -181.53191489361703 721.7234042553191 -195.12765957446808Q745.2765957446808 -208.72340425531914 774.3829787234042 -208.72340425531914Q803.4893617021276 -208.72340425531914 827.0425531914893 -195.12765957446808Q850.595744680851 -181.53191489361703 864.5744680851063 -157.59574468085106Q878.5531914893617 -133.6595744680851 878.5531914893617 -102.25531914893617ZM832.595744680851 -102.25531914893617Q832.595744680851 -121.7872340425532 824.7446808510638 -136.14893617021278Q816.8936170212766 -150.51063829787233 803.6808510638298 -158.5531914893617Q790.4680851063829 -166.59574468085106 774.3829787234042 -166.59574468085106Q758.2978723404254 -166.59574468085106 745.0851063829787 -158.5531914893617Q731.8723404255319 -150.51063829787233 724.0212765957447 -136.14893617021278Q716.1702127659574 -121.7872340425532 716.1702127659574 -102.25531914893617Q716.1702127659574 -83.1063829787234 724.0212765957447 -68.74468085106383Q731.8723404255319 -54.38297872340426 745.0851063829787 -46.340425531914896Q758.2978723404254 -38.297872340425535 774.3829787234042 -38.297872340425535Q790.4680851063829 -38.297872340425535 803.6808510638298 -46.340425531914896Q816.8936170212766 -54.38297872340426 824.7446808510638 -68.74468085106383Q832.595744680851 -83.1063829787234 832.595744680851 -102.25531914893617ZM1018.7234042553191 -208.72340425531914Q1046.2978723404256 -208.72340425531914 1060.659574468085 -196.85106382978722Q1075.0212765957447 -184.9787234042553 1080.3829787234042 -165.25531914893617Q1085.7446808510638 -145.53191489361703 1085.7446808510638 -121.40425531914893V-23.361702127659573Q1085.7446808510638 -13.404255319148936 1079.2340425531916 -6.702127659574468Q1072.723404255319 0.0 1062.7659574468084 0.0Q1052.8085106382978 0.0 1046.2978723404253 -6.702127659574468Q1039.787234042553 -13.404255319148936 1039.787234042553 -23.361702127659573V-121.40425531914893Q1039.787234042553 -134.04255319148936 1036.723404255319 -144.1914893617021Q1033.659574468085 -154.3404255319149 1025.6170212765958 -160.46808510638297Q1017.5744680851063 -166.59574468085106 1002.6382978723404 -166.59574468085106Q988.0851063829787 -166.59574468085106 977.7446808510638 -160.46808510638297Q967.4042553191489 -154.3404255319149 962.2340425531914 -144.1914893617021Q957.063829787234 -134.04255319148936 957.063829787234 -121.40425531914893V-23.361702127659573Q957.063829787234 -13.404255319148936 950.5531914893617 -6.702127659574468Q944.0425531914893 0.0 934.0851063829787 0.0Q924.127659574468 0.0 917.6170212765957 -6.702127659574468Q911.1063829787233 -13.404255319148936 911.1063829787233 -23.361702127659573V-260.04255319148933Q911.1063829787233 -270.0 917.6170212765957 -276.70212765957444Q924.127659574468 -283.40425531914894 934.0851063829787 -283.40425531914894Q944.0425531914893 -283.40425531914894 950.5531914893617 -276.70212765957444Q957.063829787234 -270.0 957.063829787234 -260.04255319148933V-165.06382978723403L951.3191489361702 -166.2127659574468Q954.7659574468084 -172.72340425531914 960.8936170212766 -180.1914893617021Q967.0212765957447 -187.6595744680851 975.8297872340426 -194.17021276595744Q984.6382978723404 -200.68085106382978 995.3617021276596 -204.70212765957444Q1006.0851063829787 -208.72340425531914 1018.7234042553191 -208.72340425531914ZM1224.3829787234042 3.829787234042553Q1191.8297872340427 3.829787234042553 1167.8936170212767 -9.76595744680851Q1143.9574468085107 -23.361702127659573 1131.127659574468 -46.723404255319146Q1118.2978723404256 -70.08510638297872 1118.2978723404256 -99.57446808510639Q1118.2978723404256 -134.04255319148936 1132.276595744681 -158.36170212765956Q1146.2553191489362 -182.68085106382978 1168.851063829787 -195.70212765957444Q1191.4468085106382 -208.72340425531914 1216.723404255319 -208.72340425531914Q1236.2553191489362 -208.72340425531914 1253.6808510638298 -200.68085106382978Q1271.1063829787233 -192.63829787234042 1284.5106382978724 -178.6595744680851Q1297.9148936170213 -164.68085106382978 1305.7659574468084 -146.29787234042553Q1313.6170212765958 -127.91489361702128 1313.6170212765958 -107.23404255319149Q1313.2340425531916 -98.04255319148936 1306.340425531915 -92.29787234042553Q1299.4468085106382 -86.55319148936171 1290.2553191489362 -86.55319148936171H1143.9574468085107L1132.468085106383 -124.85106382978724H1273.0212765957447L1264.595744680851 -117.19148936170212V-127.53191489361701Q1263.8297872340427 -138.63829787234042 1256.744680851064 -147.44680851063828Q1249.659574468085 -156.25531914893617 1239.127659574468 -161.4255319148936Q1228.595744680851 -166.59574468085106 1216.723404255319 -166.59574468085106Q1205.2340425531916 -166.59574468085106 1195.276595744681 -163.531914893617Q1185.3191489361702 -160.46808510638297 1178.0425531914893 -153.1914893617021Q1170.7659574468084 -145.91489361702128 1166.5531914893618 -133.6595744680851Q1162.340425531915 -121.40425531914893 1162.340425531915 -102.63829787234043Q1162.340425531915 -81.95744680851064 1170.9574468085107 -67.59574468085106Q1179.5744680851064 -53.234042553191486 1193.1702127659573 -45.765957446808514Q1206.7659574468084 -38.297872340425535 1222.0851063829787 -38.297872340425535Q1236.2553191489362 -38.297872340425535 1244.6808510638298 -40.59574468085107Q1253.1063829787233 -42.8936170212766 1258.276595744681 -46.148936170212764Q1263.4468085106382 -49.40425531914894 1267.659574468085 -51.702127659574465Q1274.5531914893618 -55.148936170212764 1280.6808510638298 -55.148936170212764Q1289.1063829787233 -55.148936170212764 1294.659574468085 -49.40425531914893Q1300.212765957447 -43.659574468085104 1300.212765957447 -36.0Q1300.212765957447 -25.659574468085108 1289.4893617021276 -17.23404255319149Q1279.531914893617 -8.808510638297872 1261.531914893617 -2.4893617021276593Q1243.531914893617 3.829787234042553 1224.3829787234042 3.829787234042553ZM1513.9148936170213 -208.72340425531914Q1523.872340425532 -208.72340425531914 1530.3829787234044 -202.2127659574468Q1536.8936170212767 -195.70212765957447 1536.8936170212767 -185.36170212765958V-23.361702127659573Q1536.8936170212767 -13.404255319148936 1530.3829787234044 -6.702127659574468Q1523.872340425532 0.0 1513.9148936170213 0.0Q1503.9574468085107 0.0 1497.4468085106382 -6.702127659574468Q1490.936170212766 -13.404255319148936 1490.936170212766 -23.361702127659573V-42.12765957446808L1499.3617021276596 -38.680851063829785Q1499.3617021276596 -33.702127659574465 1494.0 -26.617021276595743Q1488.6382978723404 -19.53191489361702 1479.4468085106382 -12.638297872340425Q1470.2553191489362 -5.74468085106383 1457.8085106382978 -0.9574468085106385Q1445.3617021276596 3.829787234042553 1430.808510638298 3.829787234042553Q1404.3829787234042 3.829787234042553 1382.936170212766 -9.76595744680851Q1361.4893617021278 -23.361702127659573 1349.0425531914893 -47.29787234042553Q1336.595744680851 -71.23404255319149 1336.595744680851 -102.25531914893617Q1336.595744680851 -133.6595744680851 1349.0425531914893 -157.59574468085106Q1361.4893617021278 -181.53191489361703 1382.5531914893618 -195.12765957446808Q1403.6170212765958 -208.72340425531914 1429.276595744681 -208.72340425531914Q1445.7446808510638 -208.72340425531914 1459.5319148936169 -203.74468085106383Q1473.3191489361702 -198.7659574468085 1483.4680851063831 -191.1063829787234Q1493.6170212765958 -183.4468085106383 1499.1702127659573 -175.59574468085106Q1504.723404255319 -167.74468085106383 1504.723404255319 -162.38297872340425L1490.936170212766 -157.40425531914894V-185.36170212765958Q1490.936170212766 -195.31914893617022 1497.4468085106382 -202.02127659574467Q1503.9574468085107 -208.72340425531914 1513.9148936170213 -208.72340425531914ZM1436.5531914893618 -38.297872340425535Q1453.404255319149 -38.297872340425535 1466.0425531914893 -46.72340425531915Q1478.6808510638298 -55.148936170212764 1485.7659574468084 -69.70212765957447Q1492.8510638297873 -84.25531914893617 1492.8510638297873 -102.25531914893617Q1492.8510638297873 -120.63829787234043 1485.7659574468084 -135.19148936170214Q1478.6808510638298 -149.74468085106383 1466.0425531914893 -158.17021276595744Q1453.404255319149 -166.59574468085106 1436.5531914893618 -166.59574468085106Q1420.0851063829787 -166.59574468085106 1407.4468085106382 -158.17021276595744Q1394.808510638298 -149.74468085106383 1387.723404255319 -135.19148936170214Q1380.6382978723404 -120.63829787234043 1380.6382978723404 -102.25531914893617Q1380.6382978723404 -84.25531914893617 1387.723404255319 -69.70212765957447Q1394.808510638298 -55.148936170212764 1407.4468085106382 -46.72340425531915Q1420.0851063829787 -38.297872340425535 1436.5531914893618 -38.297872340425535ZM1581.3191489361702 -201.06382978723403H1672.0851063829787Q1681.2765957446807 -201.06382978723403 1687.404255319149 -194.93617021276594Q1693.5319148936169 -188.80851063829786 1693.5319148936169 -179.61702127659575Q1693.5319148936169 -170.80851063829786 1687.404255319149 -164.8723404255319Q1681.2765957446807 -158.93617021276594 1672.0851063829787 -158.93617021276594H1581.3191489361702Q1572.127659574468 -158.93617021276594 1566.0 -165.06382978723406Q1559.8723404255318 -171.19148936170214 1559.8723404255318 -180.38297872340425Q1559.8723404255318 -189.19148936170214 1566.0 -195.12765957446808Q1572.127659574468 -201.06382978723403 1581.3191489361702 -201.06382978723403ZM1622.2978723404253 -248.93617021276594Q1632.255319148936 -248.93617021276594 1638.5744680851062 -242.2340425531915Q1644.8936170212764 -235.53191489361703 1644.8936170212764 -225.5744680851064V-55.148936170212764Q1644.8936170212764 -49.787234042553195 1647.0 -46.340425531914896Q1649.1063829787233 -42.8936170212766 1652.7446808510638 -41.361702127659576Q1656.3829787234042 -39.829787234042556 1660.5957446808509 -39.829787234042556Q1665.191489361702 -39.829787234042556 1669.0212765957444 -41.55319148936171Q1672.851063829787 -43.276595744680854 1677.8297872340424 -43.276595744680854Q1683.191489361702 -43.276595744680854 1687.595744680851 -38.297872340425535Q1692.0 -33.319148936170215 1692.0 -24.51063829787234Q1692.0 -13.787234042553191 1680.3191489361702 -6.8936170212765955Q1668.6382978723404 0.0 1655.2340425531913 0.0Q1647.191489361702 0.0 1637.4255319148936 -1.3404255319148937Q1627.659574468085 -2.6808510638297873 1619.0425531914893 -7.851063829787234Q1610.4255319148936 -13.02127659574468 1604.6808510638298 -23.74468085106383Q1598.9361702127658 -34.46808510638298 1598.9361702127658 -53.234042553191486V-225.5744680851064Q1598.9361702127658 -235.53191489361703 1605.6382978723404 -242.2340425531915Q1612.340425531915 -248.93617021276594 1622.2978723404253 -248.93617021276594Z"/>
</svg>
